# xmcd
#
# Track frame offsets:
# 150
# 18260
# 43758
# 60125
# 76991
# 108134
# 124485
# 141888
# 159160
# 175248
# 207329
# 230892
# 247161
# 261947
# 278212
# 296281
#
# Disc length: 4307 seconds
#
# Revision: 0
# Processed by: cddbd v1.5.1PL0 Copyright (c) Steve Scherf et al.
# Submitted via: Audion 3.0.2 (http://www.panic.com/audion/)
#
DISCID=e210d110
DTITLE=sadzqdz - lalla
DYEAR=1900
DGENRE=
TTITLE0=sdtdtg
TTITLE1=gdgdgd
TTITLE2=dggdg
TTITLE3=dgsgd
TTITLE4=dgdsgd
TTITLE5=dgsdgsd
TTITLE6=sgdgsdg
TTITLE7=gdgsgd
TTITLE8=gdsgsdg
TTITLE9=dggsdgsd
TTITLE10=gdsgsdg
TTITLE11=sgdgsdgsd
TTITLE12=gsdgsdgsdgssd
TTITLE13=sdggsdg
TTITLE14=sgdgsdgsd
TTITLE15=sdgsgsdgds
EXTD=
EXTT0=
EXTT1=
EXTT2=
EXTT3=
EXTT4=
EXTT5=
EXTT6=
EXTT7=
EXTT8=
EXTT9=
EXTT10=
EXTT11=
EXTT12=
EXTT13=
EXTT14=
EXTT15=
PLAYORDER=
